<?xml version="1.0" encoding="UTF-8"?>
<!DOCTYPE svg PUBLIC "-//W3C//DTD SVG 1.1//EN" "http://www.w3.org/Graphics/SVG/1.1/DTD/svg11.dtd">
<svg version="1.1" xmlns="http://www.w3.org/2000/svg" xmlns:xlink="http://www.w3.org/1999/xlink" x="0" y="0" width="833.801" height="260.5" viewBox="0, 0, 833.801, 260.5">
  <g id="Layer_1">
    <path d="M260.5,130.25 C260.5,202.185 202.185,260.5 130.25,260.5 C58.315,260.5 0,202.185 0,130.25 C0,58.315 58.315,0 130.25,0 C202.185,0 260.5,58.315 260.5,130.25 z M252.36,130.33 C252.36,62.879 197.681,8.2 130.23,8.2 C62.779,8.2 8.1,62.879 8.1,130.33 C8.1,197.781 62.779,252.46 130.23,252.46 C197.681,252.46 252.36,197.781 252.36,130.33 z" fill="#6CB850"/>
    <path d="M160.461,58.552 L165.778,63.869 C165.884,63.974 165.884,64.145 165.778,64.251 L67.901,162.129 C67.795,162.234 67.624,162.234 67.519,162.129 L62.201,156.811 C62.096,156.706 62.096,156.535 62.201,156.429 L160.079,58.552 C160.185,58.446 160.356,58.446 160.461,58.552 z" fill="#6CB850"/>
    <path d="M61.113,120.061 L121.231,59.943 C121.337,59.838 121.508,59.838 121.613,59.943 L126.987,65.317 C127.092,65.422 127.092,65.593 126.987,65.699 L66.869,125.817 C66.763,125.922 66.592,125.922 66.487,125.817 L61.113,120.443 C61.008,120.338 61.008,120.167 61.113,120.061 z" fill="#6CB850"/>
    <path d="M194.729,61.563 L200.117,66.951 C200.218,67.053 200.218,67.218 200.117,67.319 L66.219,201.217 C66.118,201.318 65.953,201.318 65.851,201.217 L60.463,195.829 C60.362,195.727 60.362,195.562 60.463,195.461 L194.361,61.563 C194.462,61.462 194.627,61.462 194.729,61.563 z" fill="#6CB850"/>
    <path d="M389.62,78.25 L424.87,78.19 C425.184,78.189 425.462,78.372 425.57,78.65 Q426.14,80.15 425.66,81.71 C425.575,81.99 425.298,82.181 424.98,82.18 L393.7,82.05 C393.203,82.05 392.8,82.462 392.8,82.97 L392.8,145.35 C392.8,145.597 392.673,145.827 392.464,145.959 C392.255,146.091 391.993,146.106 391.77,146 Q391.05,145.66 390.26,146.03 C389.996,146.154 389.687,146.135 389.442,145.981 C389.196,145.827 389.048,145.558 389.05,145.27 L389.05,78.82 C389.05,78.505 389.305,78.25 389.62,78.25 z" fill="#6CB850"/>
    <path d="M445.44,78.07 Q450.24,78.17 455.18,78.33 Q461.62,78.54 464.88,79.2 Q480.05,82.28 487.74,95.81 Q492.44,104.1 493.08,113.8 Q493.71,123.53 491.38,132.09 Q487.81,145.19 475.7,153.05 C475.343,153.281 475.226,153.748 475.43,154.12 L493.05,185.63 C493.121,185.761 493.12,185.92 493.046,186.048 C492.972,186.175 492.836,186.252 492.69,186.25 L488.62,186.25 C488.306,186.249 488.015,186.077 487.86,185.8 L471.23,155.75 C471.086,155.495 470.783,155.377 470.51,155.47 Q459.01,159.11 445.64,157.94 C445.175,157.903 444.817,157.54 444.82,157.11 L444.82,154.32 C444.825,154.037 445.066,153.81 445.36,153.81 Q450.71,153.8 456.05,153.52 Q484.31,152.02 487.8,124 Q489.24,112.42 485.4,102.47 Q482.35,94.55 476.83,89.85 Q470.77,84.69 462.27,83.42 Q456.57,82.56 450.28,82.49 C449.877,82.49 449.55,82.817 449.55,83.22 L449.55,120.9 C449.551,121.143 449.459,121.376 449.296,121.539 C449.133,121.702 448.915,121.779 448.7,121.75 L445.34,121.34 C445.067,121.304 444.861,121.03 444.86,120.7 L444.8,78.69 C444.8,78.524 444.868,78.365 444.988,78.248 C445.108,78.131 445.271,78.067 445.44,78.07 z" fill="#6CB850"/>
    <path d="M727.5,78.27 C727.622,78.16 727.79,78.119 727.948,78.159 C728.107,78.199 728.235,78.316 728.29,78.47 L764.29,185.73 C764.332,185.849 764.312,185.981 764.237,186.085 C764.161,186.188 764.039,186.25 763.91,186.25 L759.22,186.25 C758.916,186.251 758.648,186.056 758.56,185.77 L727.74,92.06 Q727.55,91.49 727.36,92.06 L696.9,185.46 C696.776,185.832 696.514,186.085 696.26,186.08 L692.08,185.99 C691.88,185.985 691.698,185.878 691.588,185.701 C691.477,185.523 691.452,185.297 691.52,185.09 Q708.81,132.91 726.01,81.62 Q726.01,81.61 726.39,80.23 Q726.73,78.98 727.5,78.27 z" fill="#6CB850"/>
    <path d="M632.38,78.3 L635.98,78.3 C636.295,78.3 636.55,78.555 636.55,78.87 L636.55,158.69 C636.55,159.005 636.295,159.26 635.98,159.26 L632.38,159.26 C632.065,159.26 631.81,159.005 631.81,158.69 L631.81,78.87 C631.81,78.555 632.065,78.3 632.38,78.3 z" fill="#6CB850"/>
    <path d="M782.8,78.25 Q789.05,78.25 795.31,78.25 Q804.14,78.25 807.74,79.07 Q823.13,82.57 825.58,100.03 Q826.78,108.66 823.37,116.64 Q821.02,122.14 815.98,125.66 Q815.09,126.28 816.12,126.6 Q819.44,127.63 822.41,129.74 Q825.19,131.7 827.32,134.64 Q832.53,141.83 833.55,152 Q834.78,164.27 829.99,173.69 Q826.07,181.38 818.37,184.34 Q814.05,185.99 803.52,186.2 Q793.13,186.4 782.9,186.19 C782.567,186.185 782.3,185.918 782.3,185.59 L782.36,125.61 C782.362,124.925 782.863,124.343 783.54,124.24 Q786.19,123.82 786.79,124.63 Q786.85,124.71 786.88,127.04 Q787.19,152.67 787.04,179.33 C787.04,179.961 787.549,180.475 788.18,180.48 Q797.83,180.63 806.83,180.42 Q814.41,180.25 818.02,178.6 Q823.77,176 826.49,170.19 Q832.99,156.32 826.77,142.94 Q823.74,136.43 819.26,133.33 Q813.98,129.66 806.8,130 Q804.32,130.12 791.12,129.95 C790.74,129.944 790.424,129.788 790.31,129.55 L787.82,124.53 C787.766,124.415 787.781,124.281 787.86,124.174 C787.939,124.066 788.071,124.001 788.21,124 Q796.55,124 804.8,123.95 Q811.22,123.9 815.37,120.11 Q818.79,116.97 820.15,111.45 Q821.32,106.68 820.8,101.25 Q819.82,91.12 812.39,86.63 Q808.83,84.47 802.27,83.99 Q795.13,83.46 787.56,83.78 C787.275,83.791 787.05,84.029 787.05,84.32 Q787.05,102.13 787.05,119.75 Q787.05,121.1 785.59,120.92 Q784.75,120.82 783.98,120.88 Q781.99,121.03 782.17,119.02 Q782.3,117.57 782.3,117.46 Q782.3,98.1 782.3,78.75 C782.3,78.474 782.524,78.25 782.8,78.25 z" fill="#6CB850"/>
    <path d="M572.67,80.05 Q590.39,84.32 602.24,98.81 Q612.32,111.14 613.68,126.88 Q614.45,135.84 612.97,143.57 Q611.36,151.93 606.66,159.34 Q597,174.57 581.24,181.49 Q571.98,185.56 561.88,185.99 Q547.69,186.61 534.14,180.4 C533.91,180.297 533.733,180.103 533.655,179.868 C533.576,179.632 533.604,179.378 533.73,179.17 L535.31,176.6 C535.463,176.357 535.778,176.271 536.04,176.4 Q546.93,181.75 559.05,181.73 Q580.6,181.68 595.5,166.45 Q610.76,150.86 609.08,128.77 Q607.52,108.18 591.9,94.91 Q579.31,84.2 564.3,83 Q532.64,80.47 515.51,107.26 C515.33,107.544 515.004,107.665 514.76,107.54 L512.13,106.15 C511.91,106.035 511.759,105.816 511.715,105.547 C511.671,105.278 511.738,104.985 511.9,104.74 Q526.9,81.56 552.82,78.82 Q563.05,77.73 572.67,80.05 z" fill="#6CB850"/>
    <path d="M193.343,100.457 L198.703,105.817 C198.808,105.923 198.808,106.094 198.703,106.199 L105.039,199.863 C104.934,199.968 104.763,199.968 104.657,199.863 L99.297,194.503 C99.192,194.397 99.192,194.226 99.297,194.121 L192.961,100.457 C193.066,100.352 193.237,100.352 193.343,100.457 z" fill="#6CB850"/>
    <path d="M194.57,136.643 L199.817,141.89 C199.945,142.019 199.945,142.228 199.817,142.357 L140.137,202.037 C140.008,202.165 139.799,202.165 139.67,202.037 L134.423,196.79 C134.294,196.661 134.294,196.452 134.423,196.323 L194.103,136.643 C194.232,136.515 194.441,136.515 194.57,136.643 z" fill="#6CB850"/>
    <path d="M398.24,150.91 Q398.56,152.36 398.05,153.73 C397.956,153.989 397.67,154.14 397.37,154.09 Q395.35,153.73 393.35,154.19 C393.064,154.255 392.861,154.512 392.86,154.81 L392.86,181.94 C392.86,182.222 393.084,182.45 393.36,182.45 L426.23,182.32 C426.543,182.321 426.813,182.513 426.89,182.79 Q427.27,184.17 426.98,185.59 C426.923,185.876 426.667,186.082 426.37,186.08 L389.74,186.07 C389.453,186.07 389.22,185.842 389.22,185.56 L389.23,150.94 C389.23,150.636 389.454,150.39 389.73,150.39 L397.61,150.39 C397.909,150.39 398.17,150.606 398.24,150.91 z" fill="#6CB850"/>
    <path d="M720.689,155.935 L724.708,154.858 C724.846,154.821 724.989,154.903 725.026,155.042 L733.194,185.527 C733.232,185.665 733.149,185.808 733.011,185.845 L728.992,186.922 C728.854,186.959 728.711,186.877 728.674,186.738 L720.506,156.253 C720.468,156.115 720.551,155.972 720.689,155.935 z" fill="#6CB850"/>
    <path d="M632.62,168 Q634.26,167.83 635.82,168.33 C636.119,168.424 636.325,168.694 636.33,169 L636.62,180.94 C636.625,181.218 636.848,181.44 637.12,181.44 L672.62,181.5 C672.785,181.501 672.943,181.583 673.056,181.726 C673.169,181.87 673.228,182.062 673.22,182.26 L673.11,185.61 C673.099,185.966 672.843,186.249 672.53,186.25 L632.91,186.25 C632.662,186.25 632.424,186.151 632.249,185.974 C632.074,185.798 631.977,185.558 631.98,185.31 L632.11,168.56 C632.109,168.273 632.329,168.031 632.62,168 z" fill="#6CB850"/>
    <path d="M328.563,78.592 L333.884,78.638 C334.421,78.643 334.852,79.082 334.848,79.619 L334.82,82.766 C334.815,83.303 334.376,83.734 333.84,83.729 L328.518,83.683 C327.981,83.678 327.55,83.239 327.555,82.702 L327.582,79.556 C327.587,79.019 328.026,78.587 328.563,78.592 z" fill="#6CB850"/>
    <path d="M365.956,78.538 Q368.195,78.551 370.574,78.858 C370.72,78.877 370.848,78.964 370.919,79.093 C370.99,79.222 370.995,79.377 370.932,79.511 L320.699,179.108 Q319.407,181.679 322.183,180.95 Q326.673,179.785 325.215,185.375 C325.119,185.763 324.785,186.034 324.409,186.028 L313.971,185.734 C313.698,185.727 313.45,185.575 313.315,185.331 C313.18,185.087 313.177,184.785 313.305,184.531 L363.884,84.333 C363.942,84.22 363.934,84.084 363.862,83.972 C363.79,83.859 363.665,83.784 363.526,83.77 L360.149,83.425 C359.78,83.389 359.476,83.079 359.407,82.67 Q358.767,78.845 361.901,78.5 Q361.927,78.5 365.956,78.538 z" fill="#6CB850"/>
    <path d="M355.594,180.842 L360.274,180.956 C360.917,180.972 361.425,181.506 361.41,182.148 L361.342,184.911 C361.327,185.553 360.793,186.062 360.15,186.046 L355.47,185.932 C354.827,185.916 354.319,185.382 354.334,184.739 L354.402,181.977 C354.418,181.334 354.951,180.826 355.594,180.842 z" fill="#6CB850"/>
  </g>
</svg>
